<?xml version="1.0" encoding="utf-8"?>
<!-- Generator: Adobe Illustrator 23.0.2, SVG Export Plug-In . SVG Version: 6.00 Build 0)  -->
<svg version="1.1" id="Layer_1" xmlns="http://www.w3.org/2000/svg" xmlns:xlink="http://www.w3.org/1999/xlink" x="0px" y="0px"
	 viewBox="0 0 800 800" style="enable-background:new 0 0 800 800;" xml:space="preserve">
<style type="text/css">
	.st0{fill:#FFFFFF;}
</style>
<g>
	<g>
		<g>
			<path class="st0" d="M533.3,450.9V133.3C533.3,59.7,473.6,0,400,0c-73.6,0-133.3,59.7-133.3,133.3V451
				C224.7,488.4,200,542.2,200,600c0,126.6,116,222,242.7,195.5c77.9-16.2,139.8-80,154-158.5C609.5,566,584.6,496.7,533.3,450.9z
				 M531.1,625.2c-9.4,51.7-50.8,94.4-102,105.1c-85.2,17.8-162.4-45.8-162.4-130.3c0-42.5,20-81.7,53.3-106.7l13.3-10v-350
				c0-36.8,29.9-66.7,66.7-66.7c36.8,0,66.7,29.8,66.7,66.7v354l15.7,7.8C521,525.5,540.3,574.4,531.1,625.2z"/>
			<path class="st0" d="M433.3,542.3V300c0-18.4-14.9-33.3-33.3-33.3c-18.4,0-33.3,14.9-33.3,33.3v242.3
				c-19.9,11.5-33.3,33.1-33.3,57.7c0,36.8,29.8,66.7,66.7,66.7c36.8,0,66.7-29.8,66.7-66.7C466.7,575.3,453.3,553.8,433.3,542.3z"
				/>
		</g>
	</g>
</g>
</svg>
